<mxfile host="Electron" agent="Mozilla/5.0 (Macintosh; Intel Mac OS X 10_15_7) AppleWebKit/537.36 (KHTML, like Gecko) draw.io/26.0.4 Chrome/128.0.6613.186 Electron/32.2.5 Safari/537.36" version="26.0.4">
  <diagram name="Page-1" id="m681POHeUYzmoVZ9TLNn">
    <mxGraphModel dx="1306" dy="834" grid="1" gridSize="10" guides="1" tooltips="1" connect="1" arrows="1" fold="1" page="1" pageScale="1" pageWidth="827" pageHeight="1169" math="0" shadow="0">
      <root>
        <mxCell id="0" />
        <mxCell id="1" parent="0" />
        <mxCell id="nWZ3nHGJLYlQtmUIXJ7j-1" value="&lt;b&gt;Cas d&#39;Utilisation : Application de gestion des tâches&lt;/b&gt;" style="text;html=1;align=center;verticalAlign=middle;whiteSpace=wrap;rounded=0;fontSize=16;fontStyle=4" parent="1" vertex="1">
          <mxGeometry x="209" y="30" width="410" height="30" as="geometry" />
        </mxCell>
        <mxCell id="nWZ3nHGJLYlQtmUIXJ7j-29" style="edgeStyle=orthogonalEdgeStyle;rounded=0;orthogonalLoop=1;jettySize=auto;html=1;entryX=0;entryY=0.5;entryDx=0;entryDy=0;endArrow=none;endFill=0;" parent="1" source="nWZ3nHGJLYlQtmUIXJ7j-2" target="nWZ3nHGJLYlQtmUIXJ7j-22" edge="1">
          <mxGeometry relative="1" as="geometry">
            <Array as="points">
              <mxPoint x="150" y="700" />
              <mxPoint x="150" y="1204" />
            </Array>
          </mxGeometry>
        </mxCell>
        <mxCell id="nWZ3nHGJLYlQtmUIXJ7j-2" value="Utilisateur" style="shape=umlActor;verticalLabelPosition=bottom;verticalAlign=top;html=1;outlineConnect=0;" parent="1" vertex="1">
          <mxGeometry x="60" y="670" width="30" height="60" as="geometry" />
        </mxCell>
        <mxCell id="nWZ3nHGJLYlQtmUIXJ7j-31" style="edgeStyle=orthogonalEdgeStyle;rounded=0;orthogonalLoop=1;jettySize=auto;html=1;entryX=1;entryY=0.5;entryDx=0;entryDy=0;endArrow=none;endFill=0;" parent="1" source="nWZ3nHGJLYlQtmUIXJ7j-3" target="nWZ3nHGJLYlQtmUIXJ7j-23" edge="1">
          <mxGeometry relative="1" as="geometry" />
        </mxCell>
        <mxCell id="nWZ3nHGJLYlQtmUIXJ7j-3" value="Système" style="shape=umlActor;verticalLabelPosition=bottom;verticalAlign=top;html=1;outlineConnect=0;" parent="1" vertex="1">
          <mxGeometry x="750" y="670" width="30" height="60" as="geometry" />
        </mxCell>
        <mxCell id="nWZ3nHGJLYlQtmUIXJ7j-4" value="&lt;b&gt;Gestion des Utilisateurs&lt;/b&gt;" style="shape=umlFrame;whiteSpace=wrap;html=1;pointerEvents=0;recursiveResize=0;container=1;collapsible=0;width=160;" parent="1" vertex="1">
          <mxGeometry x="200" y="120" width="440" height="200" as="geometry" />
        </mxCell>
        <mxCell id="nWZ3nHGJLYlQtmUIXJ7j-10" value="Créer un compte" style="ellipse;whiteSpace=wrap;html=1;" parent="nWZ3nHGJLYlQtmUIXJ7j-4" vertex="1">
          <mxGeometry x="40" y="40" width="140" height="70" as="geometry" />
        </mxCell>
        <mxCell id="nWZ3nHGJLYlQtmUIXJ7j-11" value="Voir mon compte" style="ellipse;whiteSpace=wrap;html=1;" parent="nWZ3nHGJLYlQtmUIXJ7j-4" vertex="1">
          <mxGeometry x="40" y="120" width="140" height="70" as="geometry" />
        </mxCell>
        <mxCell id="nWZ3nHGJLYlQtmUIXJ7j-14" value="Lister les utilisateurs" style="ellipse;whiteSpace=wrap;html=1;" parent="nWZ3nHGJLYlQtmUIXJ7j-4" vertex="1">
          <mxGeometry x="220" y="80" width="140" height="70" as="geometry" />
        </mxCell>
        <mxCell id="nWZ3nHGJLYlQtmUIXJ7j-5" value="&lt;b&gt;Authentification&lt;/b&gt;" style="shape=umlFrame;whiteSpace=wrap;html=1;pointerEvents=0;recursiveResize=0;container=1;collapsible=0;width=160;" parent="1" vertex="1">
          <mxGeometry x="200" y="360" width="440" height="200" as="geometry" />
        </mxCell>
        <mxCell id="nWZ3nHGJLYlQtmUIXJ7j-13" value="Se connecter" style="ellipse;whiteSpace=wrap;html=1;" parent="nWZ3nHGJLYlQtmUIXJ7j-5" vertex="1">
          <mxGeometry x="30" y="80" width="140" height="70" as="geometry" />
        </mxCell>
        <mxCell id="nWZ3nHGJLYlQtmUIXJ7j-15" value="Se déconnecter" style="ellipse;whiteSpace=wrap;html=1;" parent="nWZ3nHGJLYlQtmUIXJ7j-5" vertex="1">
          <mxGeometry x="240" y="80" width="140" height="70" as="geometry" />
        </mxCell>
        <mxCell id="nWZ3nHGJLYlQtmUIXJ7j-6" value="&lt;b&gt;Gestion des Tâches&lt;/b&gt;" style="shape=umlFrame;whiteSpace=wrap;html=1;pointerEvents=0;recursiveResize=0;container=1;collapsible=0;width=160;" parent="1" vertex="1">
          <mxGeometry x="200" y="600" width="440" height="200" as="geometry" />
        </mxCell>
        <mxCell id="nWZ3nHGJLYlQtmUIXJ7j-16" value="Créer une tâche" style="ellipse;whiteSpace=wrap;html=1;" parent="nWZ3nHGJLYlQtmUIXJ7j-6" vertex="1">
          <mxGeometry x="20" y="40" width="140" height="70" as="geometry" />
        </mxCell>
        <mxCell id="nWZ3nHGJLYlQtmUIXJ7j-17" value="Modifier une tâche" style="ellipse;whiteSpace=wrap;html=1;" parent="nWZ3nHGJLYlQtmUIXJ7j-6" vertex="1">
          <mxGeometry x="250" y="40" width="140" height="70" as="geometry" />
        </mxCell>
        <mxCell id="nWZ3nHGJLYlQtmUIXJ7j-18" value="Lister les tâches" style="ellipse;whiteSpace=wrap;html=1;" parent="nWZ3nHGJLYlQtmUIXJ7j-6" vertex="1">
          <mxGeometry x="20" y="120" width="140" height="70" as="geometry" />
        </mxCell>
        <mxCell id="nWZ3nHGJLYlQtmUIXJ7j-19" value="Supprimer une tâche" style="ellipse;whiteSpace=wrap;html=1;" parent="nWZ3nHGJLYlQtmUIXJ7j-6" vertex="1">
          <mxGeometry x="250" y="120" width="140" height="70" as="geometry" />
        </mxCell>
        <mxCell id="nWZ3nHGJLYlQtmUIXJ7j-7" value="&lt;b&gt;Partage des Tâches&lt;/b&gt;" style="shape=umlFrame;whiteSpace=wrap;html=1;pointerEvents=0;recursiveResize=0;container=1;collapsible=0;width=160;" parent="1" vertex="1">
          <mxGeometry x="200" y="840" width="440" height="200" as="geometry" />
        </mxCell>
        <mxCell id="nWZ3nHGJLYlQtmUIXJ7j-20" value="Partager&lt;span style=&quot;background-color: transparent; color: light-dark(rgb(0, 0, 0), rgb(255, 255, 255));&quot;&gt;&amp;nbsp;une tâche&lt;/span&gt;" style="ellipse;whiteSpace=wrap;html=1;" parent="nWZ3nHGJLYlQtmUIXJ7j-7" vertex="1">
          <mxGeometry x="30" y="80" width="140" height="70" as="geometry" />
        </mxCell>
        <mxCell id="nWZ3nHGJLYlQtmUIXJ7j-21" value="Lister&lt;span style=&quot;background-color: transparent; color: light-dark(rgb(0, 0, 0), rgb(255, 255, 255));&quot;&gt;&amp;nbsp;les tâches&lt;br&gt;partagées&lt;/span&gt;" style="ellipse;whiteSpace=wrap;html=1;" parent="nWZ3nHGJLYlQtmUIXJ7j-7" vertex="1">
          <mxGeometry x="250" y="80" width="140" height="70" as="geometry" />
        </mxCell>
        <mxCell id="nWZ3nHGJLYlQtmUIXJ7j-8" value="&lt;b&gt;Rappels et Notifications&lt;/b&gt;" style="shape=umlFrame;whiteSpace=wrap;html=1;pointerEvents=0;recursiveResize=0;container=1;collapsible=0;width=160;" parent="1" vertex="1">
          <mxGeometry x="200" y="1090" width="440" height="200" as="geometry" />
        </mxCell>
        <mxCell id="nWZ3nHGJLYlQtmUIXJ7j-22" value="Recevoir un rappel" style="ellipse;whiteSpace=wrap;html=1;" parent="nWZ3nHGJLYlQtmUIXJ7j-8" vertex="1">
          <mxGeometry x="20" y="79" width="140" height="70" as="geometry" />
        </mxCell>
        <mxCell id="nWZ3nHGJLYlQtmUIXJ7j-23" value="Envoyer un rappel" style="ellipse;whiteSpace=wrap;html=1;" parent="nWZ3nHGJLYlQtmUIXJ7j-8" vertex="1">
          <mxGeometry x="240" y="79" width="140" height="70" as="geometry" />
        </mxCell>
        <mxCell id="nWZ3nHGJLYlQtmUIXJ7j-24" style="edgeStyle=orthogonalEdgeStyle;rounded=0;orthogonalLoop=1;jettySize=auto;html=1;entryX=0;entryY=0.4;entryDx=0;entryDy=0;entryPerimeter=0;endArrow=none;endFill=0;" parent="1" source="nWZ3nHGJLYlQtmUIXJ7j-2" target="nWZ3nHGJLYlQtmUIXJ7j-4" edge="1">
          <mxGeometry relative="1" as="geometry">
            <Array as="points">
              <mxPoint x="150" y="700" />
              <mxPoint x="150" y="200" />
            </Array>
          </mxGeometry>
        </mxCell>
        <mxCell id="nWZ3nHGJLYlQtmUIXJ7j-26" style="edgeStyle=orthogonalEdgeStyle;rounded=0;orthogonalLoop=1;jettySize=auto;html=1;entryX=-0.002;entryY=0.425;entryDx=0;entryDy=0;entryPerimeter=0;endArrow=none;endFill=0;" parent="1" source="nWZ3nHGJLYlQtmUIXJ7j-2" target="nWZ3nHGJLYlQtmUIXJ7j-5" edge="1">
          <mxGeometry relative="1" as="geometry">
            <Array as="points">
              <mxPoint x="150" y="700" />
              <mxPoint x="150" y="445" />
            </Array>
          </mxGeometry>
        </mxCell>
        <mxCell id="nWZ3nHGJLYlQtmUIXJ7j-28" style="edgeStyle=orthogonalEdgeStyle;rounded=0;orthogonalLoop=1;jettySize=auto;html=1;entryX=0;entryY=0.6;entryDx=0;entryDy=0;entryPerimeter=0;endArrow=none;endFill=0;" parent="1" source="nWZ3nHGJLYlQtmUIXJ7j-2" target="nWZ3nHGJLYlQtmUIXJ7j-7" edge="1">
          <mxGeometry relative="1" as="geometry">
            <Array as="points">
              <mxPoint x="150" y="700" />
              <mxPoint x="150" y="960" />
            </Array>
          </mxGeometry>
        </mxCell>
        <mxCell id="nWZ3nHGJLYlQtmUIXJ7j-30" style="edgeStyle=orthogonalEdgeStyle;rounded=0;orthogonalLoop=1;jettySize=auto;html=1;entryX=-0.005;entryY=0.499;entryDx=0;entryDy=0;entryPerimeter=0;endArrow=none;endFill=0;" parent="1" source="nWZ3nHGJLYlQtmUIXJ7j-2" target="nWZ3nHGJLYlQtmUIXJ7j-6" edge="1">
          <mxGeometry relative="1" as="geometry" />
        </mxCell>
      </root>
    </mxGraphModel>
  </diagram>
</mxfile>
